<svg width="301" height="300" viewBox="0 0 301 300" fill="none" xmlns="http://www.w3.org/2000/svg">
<path fill-rule="evenodd" clip-rule="evenodd" d="M156.596 5.90389L152 1.30769L147.404 5.90389L146.404 6.90389L88.9039 64.4039L84.3077 69.0001L88.9039 73.5963L89.4039 74.0963L118.308 103L74.9039 146.404L70.3077 151L74.9039 155.596L145.404 226.096L150 230.692L154.596 226.096L173.5 207.192L198.808 232.5L150.5 280.808L94.0963 224.404L84.9039 233.596L145.904 294.596L150.5 299.192L155.096 294.596L212.596 237.096L217.192 232.5L212.596 227.904L182.692 198L225.596 155.096L230.192 150.5L225.596 145.904L208.096 128.404L203.5 123.808L198.904 128.404L167.698 159.609L159.502 150.69L221 89.1925L281.808 150L232.5 199.308L224.692 191.5L261.096 155.096L265.692 150.5L261.096 145.904L221.096 105.904L211.904 115.096L247.308 150.5L210.904 186.904L206.308 191.5L210.904 196.096L227.904 213.096L232.5 217.692L237.096 213.096L295.596 154.596L300.192 150L295.596 145.404L295.096 144.904L225.596 75.4039L221 70.8077L216.404 75.4039L214.904 76.9039L203 88.8077L155.096 40.9039L150.5 36.3077L145.904 40.9039L144.904 41.9039L118.404 68.4039L127.596 77.5963L150.5 54.6925L193.808 98.0001L145.904 145.904L141.498 150.31L145.714 154.898L162.714 173.398L167.302 178.391L172.096 173.596L173.096 172.596L203.5 142.192L211.808 150.5L168.904 193.404L167.5 194.808L123.692 151L172.596 102.096L177.192 97.5001L172.596 92.9039L171.596 91.9039L155.096 75.4039L150.5 70.8077L145.904 75.4039L144.904 76.4039L127.5 93.8077L102.692 69.0001L152 19.6925L202.904 70.5963L212.096 61.4039L156.596 5.90389ZM136.692 103L132.096 107.596L88.6925 151L150 212.308L158.308 204L109.904 155.596L105.308 151L109.904 146.404L110.904 145.404L158.808 97.5001L150.5 89.1925L136.692 103ZM68.5001 83.8077L73.0963 88.4039L89.0963 104.404L90.0963 105.404L94.6925 110L90.0963 114.596L54.1925 150.5L150.5 246.808L173.904 223.404L183.096 232.596L155.096 260.596L150.5 265.192L145.904 260.596L145.404 260.096L40.4039 155.096L35.8077 150.5L40.4039 145.904L40.9039 145.404L76.3077 110L68.5001 102.192L19.6925 151L77.5963 208.904L68.4039 218.096L5.90389 155.596L1.30769 151L5.90389 146.404L63.9039 88.4039L68.5001 83.8077Z" fill="url(#paint0_linear_26_22)"/>
<defs>
<linearGradient id="paint0_linear_26_22" x1="0.60059" y1="205.306" x2="300.9" y2="95.194" gradientUnits="userSpaceOnUse">
<stop stop-color="#0ED0FC"/>
<stop offset="0.245192" stop-color="#BC39DF"/>
<stop offset="0.497596" stop-color="#9F52E4"/>
<stop offset="0.75" stop-color="#826CE9"/>
<stop offset="1" stop-color="#0ED0FC"/>
</linearGradient>
</defs>
</svg>
